HIERARCHY
ROOT Hips
{
	OFFSET 0.00000 0.00000 0.00000
	CHANNELS 6 Xposition Yposition Zposition Zrotation Yrotation Xrotation 
	JOINT LHipJoint
	{
		OFFSET 0 0 0
		CHANNELS 3 Zrotation Yrotation Xrotation
		JOINT LeftHip
		{
			OFFSET 1.53794 -1.55850 0.93568
			CHANNELS 3 Zrotation Yrotation Xrotation
			JOINT LeftKnee
			{
				OFFSET 2.28545 -6.27922 0.00000
				CHANNELS 3 Zrotation Yrotation Xrotation
				JOINT LeftAnkle
				{
					OFFSET 2.37329 -6.52057 0.00000
					CHANNELS 3 Zrotation Yrotation Xrotation
					JOINT LeftToe
					{
						OFFSET 0.14846 -0.40788 2.09160
						CHANNELS 3 Zrotation Yrotation Xrotation
						End Site
						{
							OFFSET 0.00000 -0.00000 1.07536
						}
					}
				}
			}
		}
	}
	JOINT RHipJoint
	{
		OFFSET 0 0 0
		CHANNELS 3 Zrotation Yrotation Xrotation
		JOINT RightHip
		{
			OFFSET -1.78290 -1.55850 0.93568
			CHANNELS 3 Zrotation Yrotation Xrotation
			JOINT RightKnee
			{
				OFFSET -2.24144 -6.15831 0.00000
				CHANNELS 3 Zrotation Yrotation Xrotation
				JOINT RightAnkle
				{
					OFFSET -2.35091 -6.45907 0.00000
					CHANNELS 3 Zrotation Yrotation Xrotation
					JOINT RightToe
					{
						OFFSET -0.14428 -0.39641 2.07944
						CHANNELS 3 Zrotation Yrotation Xrotation
						End Site
						{
							OFFSET -0.00000 -0.00000 1.06864
						}
					}
				}
			}
		}
	}
	JOINT lowerback
	{
		OFFSET 0 0 0
		CHANNELS 3 Zrotation Yrotation Xrotation
		JOINT Chest
		{
			OFFSET -0.08841 2.11430 -0.15818
			CHANNELS 3 Zrotation Yrotation Xrotation
			JOINT Chest2
			{
				OFFSET -0.00033 2.12605 -0.08097
				CHANNELS 3 Zrotation Yrotation Xrotation
				JOINT lowerneck
				{
					OFFSET 0 0 0
					CHANNELS 3 Zrotation Yrotation Xrotation
					JOINT Neck
					{
						OFFSET 0.04431 1.59447 0.43193
						CHANNELS 3 Zrotation Yrotation Xrotation
						JOINT Head
						{
							OFFSET 0.00455 1.62017 -0.58852
							CHANNELS 3 Zrotation Yrotation Xrotation
							End Site
							{
								OFFSET -0.00920 1.72955 -0.25850
							}
						}
					}
				}
				JOINT LeftCollar
				{
					OFFSET 0 0 0
					CHANNELS 3 Zrotation Yrotation Xrotation
					JOINT LeftShoulder
					{
						OFFSET 2.86490 1.49927 -0.33774
CHANNELS 3 Zrotation Xrotation Yrotation
						JOINT LeftElbow
						{
OFFSET 0 -4.874080 0.000000
CHANNELS 3 Zrotation Xrotation Yrotation
							JOINT LeftWrist
							{
OFFSET 0 -2.767290 0.000000
CHANNELS 3 Zrotation Xrotation Yrotation
								JOINT lhand
								{
									OFFSET 0 0 0
CHANNELS 3 Zrotation Xrotation Yrotation
									JOINT LFingers
									{
OFFSET 0 -0.989220 0.000000
CHANNELS 3 Zrotation Xrotation Yrotation
										End Site
										{
OFFSET 0 -0.797530 0.000000
										}
									}
								}
								JOINT LThumb
								{
OFFSET 0 0.000000 0.000000
CHANNELS 3 Zrotation Xrotation Yrotation
									End Site
									{
OFFSET 0 -0.809720 0.809720
									}
								}
							}
						}
					}
				}
				JOINT RightCollar
				{
					OFFSET 0 0 0
					CHANNELS 3 Zrotation Yrotation Xrotation
					JOINT RightShoulder
					{
						OFFSET -2.94414 1.45463 -0.25291
CHANNELS 3 Zrotation Xrotation Yrotation
						JOINT RightElbow
						{
OFFSET 0 -4.714040 0.000000
CHANNELS 3 Zrotation Xrotation Yrotation
							JOINT RightWrist
							{
OFFSET 0 -2.834680 0.000000
CHANNELS 3 Zrotation Xrotation Yrotation
								JOINT rhand
								{
									OFFSET 0 0 0
CHANNELS 3 Zrotation Xrotation Yrotation
									JOINT RFingers
									{
OFFSET 0 -0.868200 0.000000
CHANNELS 3 Zrotation Xrotation Yrotation
										End Site
										{
OFFSET 0 -0.699960 0.000000
										}
									}
								}
								JOINT RThumb
								{
OFFSET 0 0.000000 0.000000
CHANNELS 3 Zrotation Xrotation Yrotation
									End Site
									{
OFFSET 0 -0.710650 0.710650
									}
								}
							}
						}
					}
				}
			}
		}
	}
}
MOTION
Frames: 4
Frame Time: 0.008333333333333333
1.722235 15.948337 1.705717 179.490416 -3.468765 -164.994841 0.000000 0.000000 0.000000 -21.292561 -14.586060 -13.243831 3.003704 10.701068 31.278301 -1.820885 23.360626 -13.147489 0.041384 1.312839 3.609930 0.000000 0.000000 0.000000 21.566621 12.473729 -16.321438 -3.030997 -10.745025 31.424710 -0.022052 -13.604189 -19.591843 -0.714874 5.402949 -15.061538 -5.514202 0.794137 -5.863849 -0.640933 1.463197 0.925268 2.564254 0.590302 4.133290 -1.815163 -2.739479 -37.329482 3.569710 -6.113996 36.664232 0.299157 -2.305764 21.263906 0.000000 0.000000 0.000000 3.353985 -5.211850 16.958562 6.548401 -11.173380 0.641567 2.560265 80.486858 -7.416142 0.000000 0.000000 0.000000 -7.125000 0.000000 0.000000 -20.287528 36.682182 -4.374349 0.000000 0.000000 0.000000 -0.399890 -2.092104 6.065247 -12.546985 -20.619735 -2.291332 -2.516982 38.365717 7.886947 0.000000 0.000000 0.000000 7.125000 0.000000 0.000000 20.447938 37.120832 4.179253
1.720906 15.947612 1.702152 179.411247 -3.442295 -164.978524 0.000000 0.000000 0.000000 -21.379284 -14.569380 -13.232892 2.996513 10.689404 31.239502 -1.808254 23.295478 -13.172267 0.039752 1.287517 3.540189 0.000000 0.000000 0.000000 21.486062 12.523587 -16.334915 -3.043990 -10.765875 31.494330 -0.011355 -13.709767 -19.614929 -0.690821 5.313446 -14.804814 -5.595607 0.757212 -5.863547 -0.666799 1.420591 0.949804 2.579363 0.565705 4.161271 -1.832689 -2.722436 -37.355045 3.594730 -6.084987 36.659095 0.323270 -2.292891 21.268318 0.000000 0.000000 0.000000 3.249555 -5.325949 14.272087 6.743603 -11.496339 0.679701 2.444594 78.071973 -7.335825 0.000000 0.000000 0.000000 -7.125000 0.000000 0.000000 -20.359384 36.599145 -4.435448 0.000000 0.000000 0.000000 -0.385869 -2.377111 6.788340 -12.651354 -20.774204 -2.328197 -2.587146 38.183750 7.721841 0.000000 0.000000 0.000000 7.125000 0.000000 0.000000 20.347013 36.970895 4.235759
1.719576 15.946325 1.699046 179.317775 -3.432478 -164.977533 0.000000 0.000000 0.000000 -21.479953 -14.535945 -13.193346 2.986205 10.672632 31.183692 -1.794908 23.220931 -13.160570 0.036537 1.233128 3.390397 0.000000 0.000000 0.000000 21.403920 12.547596 -16.339861 -3.057290 -10.787184 31.565534 -0.002701 -13.825818 -19.678423 -0.689501 5.308642 -14.791000 -5.681814 0.721155 -5.819669 -0.709574 1.376146 0.967035 2.578482 0.541057 4.157529 -1.774915 -2.682661 -37.353330 3.609737 -6.062263 36.627393 0.328073 -2.273122 21.244632 0.000000 0.000000 0.000000 3.199071 -5.540431 11.840680 6.874336 -11.712071 0.706034 2.435538 75.658570 -7.343425 0.000000 0.000000 0.000000 -7.125000 0.000000 0.000000 -20.368661 36.605661 -4.434172 0.000000 0.000000 0.000000 -0.342832 -2.622475 7.633527 -12.800781 -20.994318 -2.381614 -2.621755 37.758924 7.697322 0.000000 0.000000 0.000000 7.125000 0.000000 0.000000 20.312498 36.950254 4.238778
1.718235 15.944762 1.696082 179.226177 -3.429477 -164.975314 0.000000 0.000000 0.000000 -21.576021 -14.501458 -13.153736 2.975350 10.654971 31.124942 -1.780993 23.142877 -13.147174 0.033043 1.172682 3.223952 0.000000 0.000000 0.000000 21.326752 12.568338 -16.345733 -3.070001 -10.807518 31.633491 0.004553 -13.942472 -19.759322 -0.690637 5.312877 -14.803140 -5.761504 0.686271 -5.763071 -0.754867 1.331215 0.969441 2.570931 0.517218 4.131358 -1.714017 -2.637873 -37.338996 3.622577 -6.039950 36.616899 0.330770 -2.254741 21.231587 0.000000 0.000000 0.000000 3.157445 -5.728831 9.444882 7.013394 -11.941079 0.734620 2.428795 73.277485 -7.354732 0.000000 0.000000 0.000000 -7.125000 0.000000 0.000000 -20.377037 36.615826 -4.430812 0.000000 0.000000 0.000000 -0.294830 -2.833205 8.521689 -12.965331 -21.236190 -2.440789 -2.661952 37.262445 7.715924 0.000000 0.000000 0.000000 7.125000 0.000000 0.000000 20.285012 36.970428 4.221827
